<svg xmlns="http://www.w3.org/2000/svg" width="38.375" height="38.38" viewBox="0 0 38.375 38.38">
  <defs>
    <style>
      .cls-1 {
        fill: #fff;
        fill-rule: evenodd;
      }
    </style>
  </defs>
  <path id="Clock" class="cls-1" d="M350,3368.2a16.82,16.82,0,1,1-16.8,16.8,16.821,16.821,0,0,1,16.8-16.8m0-2.4a19.2,19.2,0,1,0,19.2,19.2,19.2,19.2,0,0,0-19.2-19.2h0Zm0,6a1.2,1.2,0,0,1,1.2,1.2v12a1.2,1.2,0,0,1-2.4,0v-12A1.2,1.2,0,0,1,350,3371.8Zm6.864,20.07a1.2,1.2,0,0,1-1.7,0l-5.94-5.94a1.2,1.2,0,0,1,1.7-1.69l5.94,5.94A1.191,1.191,0,0,1,356.864,3391.87Z" transform="translate(-330.813 -3365.81)"/>
</svg>
