<svg xmlns="http://www.w3.org/2000/svg" width="40.03" height="38" viewBox="0 0 40.03 38">
  <defs>
    <style>
      .cls-1 {
        fill: #fff;
        fill-rule: evenodd;
      }
    </style>
  </defs>
  <path id="Cup" class="cls-1" d="M1250.9,3388.87c-6.92,0-12.56-6.07-12.56-13.52v-8.08a1.27,1.27,0,0,1,1.26-1.27h22.59a1.263,1.263,0,0,1,1.26,1.27v8.08C1263.45,3382.8,1257.82,3388.87,1250.9,3388.87Zm-10.04-20.33v6.81c0,6.06,4.5,10.99,10.04,10.99s10.04-4.93,10.04-10.99v-6.81h-20.08Zm10.02,31.6a1.253,1.253,0,0,1-1.25-1.26v-10.49a1.255,1.255,0,1,1,2.51,0v10.49A1.255,1.255,0,0,1,1250.88,3400.14Zm5.14,0.02h-10.15a1.27,1.27,0,0,1,0-2.54h10.15A1.27,1.27,0,0,1,1256.02,3400.16Zm3.76,3.83h-17.66a1.265,1.265,0,0,1,0-2.53h17.66A1.265,1.265,0,0,1,1259.78,3403.99Zm2.7-24.05a1.265,1.265,0,0,1,0-2.53c2.23,0,3.85-.61,4.83-1.81a6.9,6.9,0,0,0,1.16-4.53h-5.78a1.265,1.265,0,0,1,0-2.53h6.91a1.261,1.261,0,0,1,1.23,1.01c0.03,0.18.88,4.62-1.57,7.64C1267.79,3379.02,1265.5,3379.94,1262.48,3379.94Zm-22.98,0c-3.02,0-5.3-.92-6.78-2.75-2.44-3.02-1.6-7.46-1.56-7.64a1.245,1.245,0,0,1,1.23-1.01h6.91a1.265,1.265,0,0,1,0,2.53h-5.79a6.917,6.917,0,0,0,1.17,4.53c0.97,1.2,2.6,1.81,4.82,1.81A1.265,1.265,0,0,1,1239.5,3379.94Z" transform="translate(-1231 -3366)"/>
</svg>
