<svg xmlns="http://www.w3.org/2000/svg" width="25.59" height="25.62" viewBox="0 0 25.59 25.62">
  <defs>
    <style>
      .cls-1 {
        fill: #062033;
        fill-rule: evenodd;
        opacity: 0.2;
      }
    </style>
  </defs>
  <path id="dribbble" class="cls-1" d="M1363.56,4139.42a12.6,12.6,0,0,0-.75-2.4,13.122,13.122,0,0,0-1.18-2.18,12.869,12.869,0,0,0-3.45-3.45,12.427,12.427,0,0,0-2.18-1.18,12.6,12.6,0,0,0-2.4-.75,12.931,12.931,0,0,0-5.16,0,12.6,12.6,0,0,0-2.4.75,12.081,12.081,0,0,0-2.18,1.18,12.869,12.869,0,0,0-3.45,3.45,12.427,12.427,0,0,0-1.18,2.18,12.6,12.6,0,0,0-.75,2.4,12.931,12.931,0,0,0,0,5.16,12.6,12.6,0,0,0,.75,2.4,12.427,12.427,0,0,0,1.18,2.18,12.869,12.869,0,0,0,3.45,3.45,12.081,12.081,0,0,0,2.18,1.18,12.6,12.6,0,0,0,2.4.75,12.931,12.931,0,0,0,5.16,0,12.6,12.6,0,0,0,2.4-.75,12.427,12.427,0,0,0,2.18-1.18,12.869,12.869,0,0,0,3.45-3.45,13.122,13.122,0,0,0,1.18-2.18,12.6,12.6,0,0,0,.75-2.4A12.931,12.931,0,0,0,1363.56,4139.42Zm-1.61,2.47a25.567,25.567,0,0,0-7.62-.36c-0.07-.18-0.15-0.37-0.23-0.56-0.23-.54-0.47-1.07-0.73-1.59a14.023,14.023,0,0,0,6.09-4.32A10.925,10.925,0,0,1,1361.95,4141.89Zm-3.71-8.09a11.888,11.888,0,0,1-5.71,3.95,53.867,53.867,0,0,0-4.09-6.37A10.907,10.907,0,0,1,1358.24,4133.8Zm-9.84-2.41h0Zm-2.05.72a65.459,65.459,0,0,1,4.06,6.3,40.54,40.54,0,0,1-10.09,1.34A10.966,10.966,0,0,1,1346.35,4132.11Zm-6.26,9.89c0-.12,0-0.23.01-0.35a39.859,39.859,0,0,0,11.22-1.55c0.31,0.61.61,1.23,0.89,1.85-0.15.04-.29,0.09-0.43,0.13a17.345,17.345,0,0,0-8.9,7.22h0.01A10.865,10.865,0,0,1,1340.09,4142Zm10.93,10.93a10.888,10.888,0,0,1-6.96-2.5l0.24,0.19s2.1-4.57,8.58-6.83a0.185,0.185,0,0,1,.07-0.02,45.962,45.962,0,0,1,2.34,8.3A11.035,11.035,0,0,1,1351.02,4152.93Zm6.11-1.86a47.68,47.68,0,0,0-2.13-7.81,15.589,15.589,0,0,1,6.81.48A10.941,10.941,0,0,1,1357.13,4151.07Z" transform="translate(-1338.22 -4129.19)"/>
</svg>
