<svg xmlns="http://www.w3.org/2000/svg" width="25.59" height="25.62" viewBox="0 0 25.59 25.62">
  <defs>
    <style>
      .cls-1 {
        fill: #062033;
        fill-rule: evenodd;
        opacity: 0.2;
      }
    </style>
  </defs>
  <path id="facebook" class="cls-1" d="M1359.84,4285.8H1338.2a1.909,1.909,0,0,1-1.98-1.89v-21.74a1.976,1.976,0,0,1,1.98-1.97h21.64a1.967,1.967,0,0,1,1.97,1.97v21.74A1.9,1.9,0,0,1,1359.84,4285.8Zm-12.71-20.66a7.325,7.325,0,0,0-3.07.56,3.615,3.615,0,0,0-1.6,1.62,5.729,5.729,0,0,0-.42,2.52v1.15h-1.92v3h1.92v9.95h4.09v-9.95h2.55l0.71-3h-3.26v-1.08a2,2,0,0,1,.4-1.47,2.058,2.058,0,0,1,1.39-.41,3.374,3.374,0,0,1,1.74.65l0.75-2.82A11.688,11.688,0,0,0,1347.13,4265.14Z" transform="translate(-1336.22 -4260.19)"/>
</svg>
