<svg xmlns="http://www.w3.org/2000/svg" width="38" height="38" viewBox="0 0 38 38">
  <defs>
    <style>
      .cls-1 {
        fill: #fff;
        fill-rule: evenodd;
      }
    </style>
  </defs>
  <path id="Friends" class="cls-1" d="M646.9,3374.32c3.431,0,6.468,2.89,6.468,4.64v5.01c0,1.85-.578,5.4-2.627,7.01a2.372,2.372,0,0,0,.331,3.95l7.476,4.14c0.066,0.03.149,0.07,0.219,0.1a3.849,3.849,0,0,1,.549.31v2.15H634.375v-2.12a3.719,3.719,0,0,1,.6-0.36,1.137,1.137,0,0,0,.165-0.08l7.67-4.16a2.364,2.364,0,0,0,.353-3.93c-1.991-1.6-2.844-5.13-2.844-7.01v-5.01c0-1.71,3.216-4.64,6.583-4.64m0-2.38c-4.43,0-8.958,3.7-8.958,7.02v5.01c0,2.18.926,6.61,3.734,8.86l-7.67,4.15s-2,.9-2,2.01V3402a2.006,2.006,0,0,0,2,2h25.68a2.006,2.006,0,0,0,2-2v-3.01c0-1.18-2-2.01-2-2.01l-7.477-4.13c2.779-2.19,3.534-6.48,3.534-8.88v-5.01c0-3.32-4.412-7.02-8.843-7.02h0Zm21.1,19.14-7.588-4.14c2.779-2.18,3.645-6.48,3.645-8.88v-5.01c0-3.32-4.523-7.05-8.954-7.05a10.447,10.447,0,0,0-7.538,3.57,12.924,12.924,0,0,1,2.986.35,7.414,7.414,0,0,1,4.552-1.55c3.43,0,6.579,2.93,6.579,4.68v5.01c0,1.86-.689,5.4-2.738,7.02a2.363,2.363,0,0,0,.331,3.94l7.587,4.14a1.949,1.949,0,0,0,.219.11,3.024,3.024,0,0,1,.549.3v2.11h-4.794a3.929,3.929,0,0,1,1.223,2.38H668a2.008,2.008,0,0,0,2-2.01v-2.97C670,3391.9,668,3391.08,668,3391.08Z" transform="translate(-632 -3366)"/>
</svg>
