<svg xmlns="http://www.w3.org/2000/svg" width="25.59" height="22" viewBox="0 0 25.59 22">
  <defs>
    <style>
      .cls-1 {
        fill: #062033;
        fill-rule: evenodd;
        opacity: 0.2;
      }
    </style>
  </defs>
  <path id="google_plus" data-name="google plus" class="cls-1" d="M1359.82,4224.32v3.91h-1.6v-3.91h-4v-1.59h4v-3.91h1.6v3.91h4v1.59h-4Zm-11.06-3.95a4.118,4.118,0,0,1,2.25,3.73,4.334,4.334,0,0,1-1.99,3.36c-1.08.84-1.29,1.19-1.29,1.9,0,0.6,1.17,1.64,1.78,2.06a4.567,4.567,0,0,1,2.31,4.31c0,2.4-2.31,5.07-6.59,5.07-3.75,0-7.01-1.79-7.01-4.19,0-2.43,2.98-4.78,6.73-4.78,0.41,0,.79-0.01,1.17-0.01a2.579,2.579,0,0,1-.91-1.84,2.726,2.726,0,0,1,.34-1.26c-0.21.01-.41-0.02-0.63-0.02a4.9,4.9,0,0,1-5.14-4.89c0-2.61,2.85-5.01,5.88-5.01h6.75l-1.51,1.57h-2.14Zm-3.09,12.08c-2.59-.02-4.92,1.56-4.92,3.45,0,1.94,1.88,3.35,4.47,3.35,3.64,0,4.91-1.31,4.91-3.25a3.084,3.084,0,0,0-.08-0.68c-0.29-1.1-1.3-1.64-2.7-2.6A5.969,5.969,0,0,0,1345.67,4232.45Zm2.91-8.32c-0.3-2.24-2.03-4.04-3.77-4.1s-2.9,1.67-2.6,3.91,1.95,4.11,3.69,4.16S1348.88,4226.37,1348.58,4224.13Z" transform="translate(-1338.22 -4218.81)"/>
</svg>
