<svg xmlns="http://www.w3.org/2000/svg" width="32.062" height="32.13" viewBox="0 0 32.062 32.13">
  <defs>
    <style>
      .cls-1 {
        fill: #fff;
        fill-rule: evenodd;
      }
    </style>
  </defs>
  <path id="Rocket" class="cls-1" d="M934.983,3400.98L934,3401l-0.017-1.02c0-5.02,1.01-6.08,3.155-7.15a8.16,8.16,0,0,0,1.616-.93l1.218,1.56a11.088,11.088,0,0,1-1.941,1.16c-1.288.64-1.931,1.01-2.031,4.38,3.5-.13,3.893-1,4.522-2.3a10.233,10.233,0,0,1,.968-1.7l1.483,1.35a13.256,13.256,0,0,0-.706,1.37C941.274,3399.78,940.283,3400.98,934.983,3400.98ZM956,3383.01a4.01,4.01,0,1,1,4.011-4.01A4.016,4.016,0,0,1,956,3383.01Zm0-6.01a2,2,0,1,0,2,2A2.006,2.006,0,0,0,956,3377Zm-8.7,24.15a1.091,1.091,0,0,1-.309-0.05,1,1,0,0,1-.664-0.72l-1.217-5.15-2.26-2.51c-1.084-1.2-1.761-1.95-2.168-2.45l-5.967-1.37a0.995,0.995,0,0,1-.525-1.63l3.666-3.98a1.008,1.008,0,0,1,.748-0.33h5.563c0.346-.63.754-1.44,1.181-2.29a35.349,35.349,0,0,1,3.617-6.33,12.024,12.024,0,0,1,5.1-3.66,29.392,29.392,0,0,1,10.98-1.61,1.006,1.006,0,0,1,.925.94c0.017,0.26.374,6.49-1.306,11.01a10.77,10.77,0,0,1-3.4,4.94c-1.4,1.25-4.782,2.83-7.046,4.09-0.831.47-1.714,0.94-2.212,1.25v5.16a1,1,0,0,1-.35.76l-3.7,3.69A1.041,1.041,0,0,1,947.294,3401.15Zm-5.363-12.43c0.213,0.24,2.991,3.32,4.83,5.36a1.062,1.062,0,0,1,.231.44l0.9,3.8L950,3396v-5.22a1,1,0,0,1,.368-0.78,28.23,28.23,0,0,1,2.868-1.69c2.065-1.16,5.454-2.74,6.694-3.84a8.823,8.823,0,0,0,2.851-4.14,28.283,28.283,0,0,0,1.215-9.29,27.024,27.024,0,0,0-9.24,1.51,10.043,10.043,0,0,0-4.278,3.09,35.4,35.4,0,0,0-3.348,5.92c-0.591,1.18-1.1,2.2-1.542,2.92a0.993,0.993,0,0,1-.852.48h-5.688l-2.247,2.37,4.581,1.05A1,1,0,0,1,941.931,3388.72Z" transform="translate(-933.938 -3369.03)"/>
</svg>
