<svg xmlns="http://www.w3.org/2000/svg" width="25.59" height="20.79" viewBox="0 0 25.59 20.79">
  <defs>
    <style>
      .cls-1 {
        fill: #062033;
        fill-rule: evenodd;
        opacity: 0.2;
      }
    </style>
  </defs>
  <path id="twitter" class="cls-1" d="M1355.63,4087.6a5.41,5.41,0,0,1,4.15,1.65,8.623,8.623,0,0,0,2.69-.91l0.66-.36a5.325,5.325,0,0,1-1.71,2.47,2.368,2.368,0,0,1-.57.41v0.01a9.726,9.726,0,0,0,2.97-.8v0.01a8.488,8.488,0,0,1-1.78,2.04c-0.28.22-.55,0.44-0.82,0.65a15.138,15.138,0,0,1-.25,3.38c-1.31,5.89-4.78,9.89-10.28,11.61a15.862,15.862,0,0,1-7.44.31,19.86,19.86,0,0,1-3.08-1.01,11.611,11.611,0,0,1-1.49-.77c-0.15-.09-0.31-0.19-0.46-0.28a9.242,9.242,0,0,0,1.68.06c0.51-.08,1.02-0.06,1.5-0.16a10.869,10.869,0,0,0,3.15-1.14,5.911,5.911,0,0,0,1.42-.93,4.571,4.571,0,0,1-1.56-.28,5.279,5.279,0,0,1-3.33-3.36,5.179,5.179,0,0,0,2.34-.11,3.788,3.788,0,0,1-1.72-.69,5.052,5.052,0,0,1-2.47-4.49c0.18,0.08.36,0.17,0.54,0.25a5.052,5.052,0,0,0,1.1.31,1.448,1.448,0,0,0,.72.06h-0.03c-0.26-.3-0.69-0.51-0.96-0.84a5.383,5.383,0,0,1-1.18-4.76,5.634,5.634,0,0,1,.57-1.37c0.01,0,.01.01,0.02,0.01a2.789,2.789,0,0,0,.48.55,9.233,9.233,0,0,0,1.56,1.5,15.411,15.411,0,0,0,6.42,3.1,10.132,10.132,0,0,0,2.36.31,4.919,4.919,0,0,1,.02-2.47,5.166,5.166,0,0,1,2.97-3.52,6.134,6.134,0,0,1,1.17-.36C1355.2,4087.65,1355.42,4087.63,1355.63,4087.6Z" transform="translate(-1338.22 -4087.59)"/>
</svg>
